# xmcd
#
# Track frame offsets:
# 150
# 16025
# 32495
# 47455
# 60952
# 75465
# 90067
# 103470
# 114747
# 130417
#
# Disc length: 1926 seconds
#
#
# Revision: 7
# Processed by: cddbd v1.4PL0 Copyright (c) Steve Scherf et al.
# Submitted via: FreeRIP 2.30 
#
DISCID=6a07840a
DTITLE=George Strait - Always Never The Same
DYEAR=1999
DGENRE=Country
TTITLE0=Meanwhile
TTITLE1=Write This Down
TTITLE2=That's The Truth
TTITLE3=What Do You Say To That
TTITLE4=Peace Of Mind
TTITLE5=That's Where I Wanna Take Our Love
TTITLE6=Always Never The Same
TTITLE7=One Of You
TTITLE8=I Look At You
TTITLE9=4 Minus 3 Equals Zero
EXTD=
EXTT0=
EXTT1=
EXTT2=
EXTT3=
EXTT4=
EXTT5=
EXTT6=
EXTT7=
EXTT8=
EXTT9=
PLAYORDER=
